<svg xmlns="http://www.w3.org/2000/svg" width="72" height="72" viewBox="0 0 72 72" version="1.1"><path d="M 40 18.428 L 40 31.856 45.250 32.439 C 48.138 32.760, 53.425 33.130, 57 33.261 L 63.500 33.500 63.783 21.583 C 63.946 14.722, 63.650 9.250, 63.086 8.686 C 62.296 7.896, 46.397 5.248, 41.250 5.048 C 40.310 5.012, 40 8.326, 40 18.428 M 5.750 31.572 C 5.338 31.991, 5 33.473, 5 34.867 C 5 36.687, 5.305 37.095, 6.085 36.315 C 6.681 35.719, 7.019 34.236, 6.835 33.020 C 6.651 31.805, 6.162 31.153, 5.750 31.572 M 47 44 C 42.702 48.298, 44.491 57.718, 50.043 60.018 C 55.209 62.157, 59 58.349, 59 51.020 C 59 43.598, 51.683 39.317, 47 44 M 38 63.500 C 38 63.775, 38.225 64, 38.500 64 C 38.775 64, 39 63.775, 39 63.500 C 39 63.225, 38.775 63, 38.500 63 C 38.225 63, 38 63.225, 38 63.500" stroke="none" fill="#088b7b" fill-rule="evenodd"/><path d="M 40 18.428 L 40 31.856 45.250 32.439 C 48.138 32.760, 53.425 33.130, 57 33.261 L 63.500 33.500 63.783 21.583 C 63.946 14.722, 63.650 9.250, 63.086 8.686 C 62.296 7.896, 46.397 5.248, 41.250 5.048 C 40.310 5.012, 40 8.326, 40 18.428 M 5.750 31.572 C 5.338 31.991, 5 33.473, 5 34.867 C 5 36.687, 5.305 37.095, 6.085 36.315 C 6.681 35.719, 7.019 34.236, 6.835 33.020 C 6.651 31.805, 6.162 31.153, 5.750 31.572 M 47 44 C 42.702 48.298, 44.491 57.718, 50.043 60.018 C 55.209 62.157, 59 58.349, 59 51.020 C 59 43.598, 51.683 39.317, 47 44 M 38 63.500 C 38 63.775, 38.225 64, 38.500 64 C 38.775 64, 39 63.775, 39 63.500 C 39 63.225, 38.775 63, 38.500 63 C 38.225 63, 38 63.225, 38 63.500" stroke="none" fill="#088b7b" fill-rule="evenodd"/><path d="M 40 18.428 L 40 31.856 45.250 32.439 C 48.138 32.760, 53.425 33.130, 57 33.261 L 63.500 33.500 63.783 21.583 C 63.946 14.722, 63.650 9.250, 63.086 8.686 C 62.296 7.896, 46.397 5.248, 41.250 5.048 C 40.310 5.012, 40 8.326, 40 18.428 M 5.750 31.572 C 5.338 31.991, 5 33.473, 5 34.867 C 5 36.687, 5.305 37.095, 6.085 36.315 C 6.681 35.719, 7.019 34.236, 6.835 33.020 C 6.651 31.805, 6.162 31.153, 5.750 31.572 M 47 44 C 42.702 48.298, 44.491 57.718, 50.043 60.018 C 55.209 62.157, 59 58.349, 59 51.020 C 59 43.598, 51.683 39.317, 47 44 M 38 63.500 C 38 63.775, 38.225 64, 38.500 64 C 38.775 64, 39 63.775, 39 63.500 C 39 63.225, 38.775 63, 38.500 63 C 38.225 63, 38 63.225, 38 63.500" stroke="none" fill="#088b7b" fill-rule="evenodd"/><path d="M 23.638 3.740 C 10.193 7.184, 9.735 7.389, 8.411 10.558 C 7.576 12.558, 7 18.031, 6.927 24.663 C 6.862 30.623, 6.350 36.058, 5.790 36.740 C 4.258 38.606, 5.243 64.965, 6.944 67.606 C 8.142 69.465, 9.599 69.786, 19.401 70.351 C 25.505 70.703, 37.536 70.993, 46.136 70.995 L 61.772 71 63.505 67.349 C 65.040 64.114, 65.219 60.320, 65.075 34.104 C 64.985 17.828, 64.594 4.221, 64.206 3.867 C 63.545 3.262, 40.501 -0.112, 38.444 0.095 C 37.925 0.147, 31.262 1.787, 23.638 3.740 M 40 18.428 L 40 31.856 45.250 32.439 C 48.138 32.760, 53.425 33.130, 57 33.261 L 63.500 33.500 63.783 21.583 C 63.946 14.722, 63.650 9.250, 63.086 8.686 C 62.296 7.896, 46.397 5.248, 41.250 5.048 C 40.310 5.012, 40 8.326, 40 18.428 M 47 44 C 42.702 48.298, 44.491 57.718, 50.043 60.018 C 55.209 62.157, 59 58.349, 59 51.020 C 59 43.598, 51.683 39.317, 47 44 M 38 63.500 C 38 63.775, 38.225 64, 38.500 64 C 38.775 64, 39 63.775, 39 63.500 C 39 63.225, 38.775 63, 38.500 63 C 38.225 63, 38 63.225, 38 63.500" stroke="none" fill="#c7cdd3" fill-rule="evenodd"/></svg>