<?xml version="1.0" encoding="utf-8"?>
<!-- Svg Vector Icons : http://www.onlinewebfonts.com/icon -->
<!DOCTYPE svg PUBLIC "-//W3C//DTD SVG 1.1//EN" "http://www.w3.org/Graphics/SVG/1.1/DTD/svg11.dtd">
<svg version="1.1" xmlns="http://www.w3.org/2000/svg" xmlns:xlink="http://www.w3.org/1999/xlink" x="0px" y="0px" viewBox="0 0 256 256" enable-background="new 0 0 256 256" xml:space="preserve">
<metadata> Svg Vector Icons : http://www.onlinewebfonts.com/icon </metadata>
<g><g><g><path stroke-width="12" fill-opacity="0" stroke="#000000"  d="M35,10.8c-3.3,1.1-5.9,3-7.5,5.5c-3,4.5-2.8-2.7-2.8,103.5v96.7h66.4h66.4v-44.3V128h5c5.7,0,9.1,0.7,13,2.8c3.2,1.8,7.2,5.8,8.9,9.1c2.5,4.9,2.6,5.9,2.6,28.9c0,23.1,0.1,24.8,2.7,30.2c4,8.6,11.8,14.9,20.9,16.7c4.5,0.9,7.3,0.9,11.8,0c11.6-2.4,20.5-11.3,22.9-23.1c0.6-3.2,0.7-8.4,0.6-44c-0.1-38.9-0.2-40.5-1.1-44.5c-1.5-6.4-3.6-12.4-6.6-18.4c-8-16.3-15.5-22.9-33.4-29.3l-5.5-2l-20.8-0.2l-20.8-0.1l-0.1-16.5l-0.1-16.5l-1.2-2.6c-1.5-3.3-4-5.8-7.3-7.3l-2.6-1.2l-54.4-0.1C40.4,10,37.3,10,35,10.8z M124.6,40.6c0.7,0.5,1.7,1.5,2.2,2.2c1,1.2,1,1.8,1,26.1s0,24.9-1,26.1c-0.5,0.7-1.5,1.7-2.2,2.2c-1.2,1-1.7,1-33.5,1c-31.8,0-32.2,0-33.5-1C57,96.7,56,95.7,55.5,95c-0.9-1.2-1-1.8-1.1-24.9c-0.1-13,0-24.3,0.1-25.1c0.3-1.8,2.3-4.2,4.1-5c1.1-0.5,7.4-0.6,33.1-0.5C122.9,39.7,123.4,39.7,124.6,40.6z M173.4,69.9c-1.3,4.1-1.4,7.7-0.4,11.7c2.2,8.2,9.1,14.8,17.2,16.4c1.4,0.3,10,0.5,20,0.5h17.4l0.5,1.2c0.3,0.7,1.1,3.3,1.7,5.7l1.2,4.4v40.6v40.6l-1.2,2.3c-1.4,2.9-4.2,5.7-7.1,7.1c-3.3,1.6-9.2,1.7-12.5,0c-2.9-1.5-5.7-4.3-7.2-7.2l-1.1-2.3l-0.3-23.5c-0.3-25.3-0.2-25-2.9-31.5c-2.6-6.5-8.3-13.1-14.3-16.9c-6.4-4-12.9-5.7-21.8-5.8h-5.2V91.1V68.9h8.1h8.1L173.4,69.9z M198.3,70.3c2.4,1.3,3.3,3,3.3,6c0,4.5-2.7,7.1-7.1,7.1c-4.5,0-7.1-2.7-7.1-7.1c0-3.2,1-4.8,3.8-6.3C193.3,68.9,196,69,198.3,70.3z"/><path stroke-width="12" fill-opacity="0" stroke="#000000"  d="M10,238.6v7.4h81.2h81.2v-7.4v-7.4H91.2H10V238.6z"/></g></g></g>
</svg>