<?xml version="1.0" standalone="no"?>
<!DOCTYPE svg PUBLIC "-//W3C//DTD SVG 20010904//EN"
 "http://www.w3.org/TR/2001/REC-SVG-20010904/DTD/svg10.dtd">
<svg version="1.0" xmlns="http://www.w3.org/2000/svg"
 width="185.000000pt" height="185.000000pt" viewBox="0 0 185.000000 185.000000"
 preserveAspectRatio="xMidYMid meet">

<g transform="translate(0.000000,185.000000) scale(0.100000,-0.100000)"
fill="#000000" stroke="none">
<path d="M540 1639 l0 -152 55 52 c30 29 81 64 112 79 52 24 69 27 168 27 99
0 116 -3 168 -27 32 -15 84 -52 116 -83 32 -30 63 -55 69 -55 9 0 12 44 12
155 l0 155 -350 0 -350 0 0 -151z"/>
<path d="M753 1506 c-104 -34 -204 -123 -251 -224 -24 -50 -27 -69 -27 -162 0
-99 2 -110 32 -171 40 -80 120 -159 200 -197 52 -24 69 -27 168 -27 104 0 114
2 176 32 80 40 159 120 197 200 24 52 27 70 27 163 0 93 -3 111 -27 163 -37
79 -117 160 -196 199 -58 29 -77 33 -161 35 -61 2 -111 -2 -138 -11z"/>
<path d="M368 815 l-68 -71 0 -176 0 -176 107 -80 c60 -44 109 -79 111 -77 2
1 -4 87 -13 190 -9 104 -12 191 -8 195 4 4 33 27 64 52 l56 45 -34 18 c-31 17
-78 63 -128 126 l-20 26 -67 -72z"/>
<path d="M1290 836 c-32 -47 -90 -102 -125 -118 -22 -10 -21 -12 34 -56 31
-24 60 -48 64 -52 4 -4 1 -91 -8 -195 -9 -103 -15 -189 -13 -190 2 -2 51 33
111 77 l107 80 0 176 0 175 -70 73 -70 72 -30 -42z"/>
</g>
</svg>
