<?xml version="1.0" standalone="no"?>
<!DOCTYPE svg PUBLIC "-//W3C//DTD SVG 20010904//EN"
 "http://www.w3.org/TR/2001/REC-SVG-20010904/DTD/svg10.dtd">
<svg version="1.0" xmlns="http://www.w3.org/2000/svg"
 width="66.000000pt" height="66.000000pt" viewBox="0 0 66.000000 66.000000"
 preserveAspectRatio="xMidYMid meet">

<g transform="translate(0.000000,66.000000) scale(0.100000,-0.100000)"
fill="#000000" stroke="none">
<path d="M30 335 l0 -305 305 0 305 0 0 305 0 305 -305 0 -305 0 0 -305z m600
0 l0 -295 -295 0 -295 0 0 295 0 295 295 0 295 0 0 -295z"/>
<path d="M83 383 c-7 -2 -13 -20 -13 -39 0 -28 4 -35 25 -40 27 -7 55 10 55
32 0 8 -10 14 -22 14 -19 0 -20 -2 -8 -10 13 -9 13 -11 0 -20 -10 -6 -19 -5
-29 5 -20 19 -6 45 24 45 15 0 24 4 20 10 -6 10 -31 12 -52 3z"/>
<path d="M160 346 c0 -25 5 -46 10 -46 6 0 10 9 10 20 0 26 8 25 29 -1 17 -21
17 -21 17 22 -1 42 -2 44 -33 47 -33 3 -33 3 -33 -42z m44 28 c18 -7 12 -24
-10 -24 -8 0 -14 7 -14 15 0 17 2 18 24 9z"/>
<path d="M250 345 c0 -25 5 -45 10 -45 6 0 10 20 10 45 0 25 -4 45 -10 45 -5
0 -10 -20 -10 -45z"/>
<path d="M280 346 c0 -25 5 -46 10 -46 6 0 10 6 10 14 0 8 10 16 23 18 16 2
22 10 22 28 0 21 -5 26 -32 28 -33 3 -33 3 -33 -42z m48 11 c2 -10 -3 -17 -12
-17 -10 0 -16 9 -16 21 0 24 23 21 28 -4z"/>
<path d="M360 346 c0 -25 5 -46 10 -46 6 0 10 6 10 14 0 8 10 16 23 18 16 2
22 10 22 28 0 21 -5 26 -32 28 -33 3 -33 3 -33 -42z m48 11 c2 -10 -3 -17 -12
-17 -10 0 -16 9 -16 21 0 24 23 21 28 -4z"/>
<path d="M440 345 l0 -45 38 1 c30 2 32 3 10 6 -34 5 -37 30 -5 36 l22 4 -22
2 c-33 2 -29 29 5 34 22 3 20 4 -10 6 l-38 1 0 -45z"/>
<path d="M520 346 c0 -25 5 -46 10 -46 6 0 10 9 10 20 0 26 8 25 29 -1 17 -21
17 -21 17 22 -1 42 -2 44 -33 47 -33 3 -33 3 -33 -42z m44 28 c18 -7 12 -24
-10 -24 -8 0 -14 7 -14 15 0 17 2 18 24 9z"/>
</g>
</svg>
