<?xml version="1.0" standalone="no"?>
<!DOCTYPE svg PUBLIC "-//W3C//DTD SVG 20010904//EN"
 "http://www.w3.org/TR/2001/REC-SVG-20010904/DTD/svg10.dtd">
<svg version="1.0" xmlns="http://www.w3.org/2000/svg"
 width="481.000000pt" height="275.000000pt" viewBox="0 0 481.000000 275.000000"
 preserveAspectRatio="xMidYMid meet">
<metadata>
Created by potrace 1.16, written by Peter Selinger 2001-2019
</metadata>
<g transform="translate(0.000000,275.000000) scale(0.100000,-0.100000)"
fill="#000000" stroke="none">
<path d="M2317 2623 c-9 -2 -14 -9 -11 -15 4 -6 -1 -8 -13 -4 -11 4 -33 1 -49
-5 -16 -6 -40 -13 -53 -15 -26 -3 -41 -19 -41 -46 0 -12 -8 -18 -21 -18 -14 0
-19 5 -16 14 4 11 -2 12 -34 4 -25 -7 -39 -16 -39 -27 0 -10 -3 -12 -8 -5 -4
6 -16 14 -26 18 -19 7 -19 6 -3 -12 17 -19 16 -20 -40 -35 -32 -8 -254 -71
-493 -140 -515 -148 -490 -142 -490 -129 0 6 14 14 32 17 26 6 28 9 15 17 -18
10 -289 -60 -281 -73 2 -4 -6 -5 -18 -1 -15 3 -19 2 -14 -7 6 -9 0 -10 -21 -6
-23 5 -25 4 -13 -5 12 -10 10 -11 -10 -6 -14 3 -31 6 -37 6 -31 0 -8 28 34 42
48 16 48 16 14 17 -19 1 -70 -8 -113 -20 l-78 -21 0 -99 0 -100 -89 -147
c-254 -418 -289 -477 -283 -482 6 -4 11 -23 14 -57 1 -6 16 -28 33 -49 24 -28
39 -37 63 -37 17 0 29 -4 27 -8 -7 -11 23 -19 42 -12 10 4 14 2 10 -4 -5 -7 1
-9 15 -6 19 4 20 3 8 -7 -12 -9 -11 -10 9 -5 15 5 21 3 17 -3 -8 -13 19 -23
41 -15 11 4 14 3 9 -5 -5 -8 -1 -10 10 -5 11 4 15 3 11 -4 -9 -14 48 -34 70
-26 11 4 14 3 9 -5 -4 -7 -5 -12 -2 -12 2 0 13 -3 23 -6 15 -5 16 -4 3 6 -12
9 -10 10 10 4 38 -10 61 -26 27 -18 l-28 6 3 -48 c3 -51 -1 -57 -59 -83 -28
-13 -30 -25 -3 -16 11 4 20 2 20 -4 0 -6 -5 -11 -11 -11 -5 0 -7 -5 -3 -12 5
-8 1 -9 -12 -5 -18 7 -18 6 -1 -7 13 -10 15 -15 5 -18 -14 -5 136 -58 164 -58
16 0 337 -103 763 -245 88 -30 349 -116 580 -191 231 -76 421 -141 423 -145 2
-4 32 -17 68 -29 35 -12 64 -28 64 -35 0 -19 27 -26 69 -19 42 7 193 102 185
115 -3 5 -2 9 3 8 21 -4 33 2 33 17 0 8 5 12 10 9 6 -3 10 -1 10 5 0 6 5 8 10
5 6 -3 10 2 10 12 0 15 2 16 10 3 9 -14 14 -7 11 13 -1 5 3 6 8 2 6 -3 19 0
30 7 16 10 30 9 69 -1 48 -12 53 -11 107 17 54 27 56 29 40 45 -9 9 -14 17
-10 17 3 0 -6 21 -20 48 -14 26 -20 39 -13 28 63 -89 75 -83 20 11 -134 231
-383 659 -488 840 -132 226 -146 251 -124 238 9 -5 11 -4 6 4 -4 6 -11 9 -16
6 -5 -3 -14 3 -19 14 -14 25 -14 34 0 25 6 -3 3 8 -5 25 -9 17 -19 31 -22 31
-2 0 0 -9 6 -21 7 -11 9 -23 7 -26 -3 -2 -22 26 -43 63 -36 65 -62 78 -29 15
8 -17 13 -31 11 -31 -3 0 -13 14 -21 31 -9 17 -19 29 -22 26 -2 -3 3 -17 13
-31 9 -15 14 -29 10 -33 -3 -3 -40 1 -82 11 -41 9 -79 14 -84 11 -5 -3 -12 -1
-15 5 -4 6 -15 8 -26 5 -10 -4 -19 -2 -19 3 0 4 -15 8 -32 8 -33 0 -288 51
-695 140 -114 25 -280 60 -368 79 -88 19 -207 46 -265 59 -58 13 -124 27 -147
31 -24 4 -43 10 -43 15 0 23 38 70 60 75 14 3 33 8 44 12 13 3 16 1 11 -7 -5
-9 -1 -10 15 -5 30 10 99 -4 79 -16 -9 -5 1 -6 26 -3 30 4 36 3 25 -5 -11 -8
-5 -9 24 -4 31 5 37 3 31 -7 -5 -9 -4 -11 4 -6 6 4 30 5 53 1 28 -5 36 -10 27
-16 -9 -5 2 -6 26 -3 30 4 36 3 25 -5 -11 -8 -5 -9 25 -5 30 4 36 3 25 -5 -11
-8 -5 -9 25 -5 31 4 37 3 25 -5 -12 -9 -10 -10 11 -6 14 4 53 -1 86 -9 34 -9
77 -16 97 -16 19 0 53 -6 73 -14 21 -8 77 -22 126 -32 61 -13 82 -21 70 -26
-12 -5 -8 -6 10 -3 37 8 288 -45 280 -58 -4 -6 -1 -7 6 -2 19 11 196 -25 179
-37 -9 -6 -6 -7 9 -3 33 9 202 -26 177 -37 -12 -5 -2 -6 26 -2 56 7 90 23 90
43 0 14 2 14 10 1 8 -13 10 -12 10 4 0 13 3 16 13 8 8 -6 21 -6 37 0 l25 9
-32 30 c-50 44 -42 114 10 87 11 -6 17 -20 17 -42 0 -48 21 -62 70 -47 36 11
40 15 40 46 0 45 17 54 33 17 l12 -30 113 45 c61 25 112 48 112 52 0 23 -52
29 -151 19 l-104 -11 -85 43 c-61 30 -98 57 -133 96 -44 49 -50 52 -85 49 -35
-4 -35 -4 -7 4 23 7 25 9 9 10 -12 0 -24 7 -27 15 -8 20 62 -16 92 -48 13 -14
27 -23 31 -21 4 3 53 -17 109 -43 l101 -48 98 12 97 12 64 -29 c35 -16 69 -29
75 -29 20 0 491 192 494 201 2 5 12 9 22 9 17 0 38 7 95 31 11 5 43 17 70 28
40 16 45 20 25 21 l-25 2 25 9 c19 6 15 7 -15 3 -33 -4 -264 26 -467 62 -38 7
-45 -1 -39 -38 0 -5 -3 -8 -9 -8 -5 0 -10 14 -10 31 0 25 -3 29 -13 20 -9 -7
-17 -7 -24 0 -5 5 -127 28 -269 49 -448 68 -529 82 -541 92 -16 12 -17 28 -3
28 6 0 10 -7 10 -16 0 -8 4 -12 10 -9 5 3 19 1 31 -6 16 -8 20 -8 14 0 -4 7 0
23 9 36 24 36 20 40 -27 28z m-1799 -958 c13 -222 16 -206 -54 -227 -70 -21
-91 -22 -49 -3 17 7 27 14 23 14 -13 2 -132 -41 -143 -51 -5 -4 5 -3 23 3 18
6 35 9 38 6 3 -3 -29 -18 -70 -33 -42 -16 -76 -32 -76 -36 0 -8 29 1 48 15 6
5 12 6 12 3 0 -4 6 -4 13 1 6 4 20 9 29 10 10 2 61 19 113 39 53 20 98 35 100
32 3 -3 8 -75 12 -161 6 -153 6 -156 30 -162 14 -3 21 -10 17 -17 -5 -8 -2 -9
9 -5 10 3 17 2 17 -3 0 -5 7 -6 17 -3 11 5 14 3 8 -6 -5 -10 -2 -11 13 -7 11
4 26 1 34 -7 7 -7 19 -12 27 -9 9 3 11 0 6 -8 -6 -10 -4 -12 8 -7 10 3 17 2
17 -3 0 -5 7 -6 17 -3 12 5 14 3 8 -7 -6 -10 -4 -12 8 -7 10 3 17 2 17 -3 0
-5 7 -7 15 -4 8 4 15 1 15 -6 0 -6 5 -8 10 -5 6 3 10 2 10 -3 0 -6 6 -10 13
-9 34 1 48 -4 41 -15 -5 -8 -2 -9 9 -5 10 3 17 2 17 -3 0 -5 6 -7 14 -4 7 3
20 -1 27 -9 8 -7 20 -12 27 -9 6 2 12 -1 12 -7 0 -6 6 -8 14 -5 7 3 20 -1 27
-9 8 -7 19 -12 25 -10 7 2 19 -3 28 -12 9 -9 20 -14 25 -11 5 4 15 1 23 -6 7
-7 18 -13 23 -13 21 -1 85 -27 85 -35 0 -5 6 -7 13 -5 15 6 44 -11 35 -21 -10
-10 -818 308 -811 320 3 5 1 6 -6 2 -14 -9 -252 84 -245 95 6 10 -34 32 -45
25 -5 -3 -14 1 -21 9 -7 8 -16 12 -21 9 -5 -3 -6 1 -3 9 3 8 0 18 -6 22 -7 4
0 17 17 34 16 15 98 143 183 284 179 297 165 294 178 42z m610 -134 l182 -59
441 30 c243 16 451 27 462 24 16 -4 52 -62 137 -223 63 -120 116 -227 118
-238 2 -17 -23 -33 -143 -95 -80 -41 -145 -74 -145 -75 -1 0 -3 -49 -6 -110
-3 -60 -8 -112 -10 -114 -2 -2 -23 0 -47 6 -92 22 -1153 346 -1164 355 -7 6
-13 26 -13 45 0 20 -12 57 -27 84 l-26 49 12 173 c14 189 17 207 34 207 7 0
94 -27 195 -59z m1624 -664 c-1 -111 -5 -250 -8 -309 l-7 -107 24 1 c46 3 80
-2 75 -11 -3 -4 6 -6 21 -3 18 3 24 1 19 -7 -6 -9 0 -10 20 -5 19 5 25 4 20
-4 -5 -8 3 -10 26 -6 26 4 30 3 18 -6 -12 -8 -6 -9 25 -5 57 9 86 25 80 45 -7
24 34 19 52 -5 12 -18 10 -21 -22 -38 -20 -10 -40 -15 -46 -12 -5 4 -16 2 -23
-4 -9 -8 -72 3 -227 40 -118 27 -247 57 -287 66 -46 10 -68 19 -60 24 19 12
40 11 33 -1 -4 -7 2 -9 19 -4 15 3 26 2 26 -4 0 -5 12 -7 26 -4 19 3 25 1 20
-7 -6 -8 0 -10 18 -5 18 4 26 2 26 -7 0 -8 3 -9 9 -3 6 5 12 32 14 59 l3 50 2
-52 c1 -35 6 -53 15 -53 8 0 7 -4 -3 -11 -11 -7 -6 -8 19 -4 25 6 32 4 26 -5
-5 -8 -3 -11 6 -8 17 5 26 145 28 432 0 104 4 186 8 182 4 -4 6 -98 5 -209z
m-1747 -31 c164 -52 300 -97 302 -100 3 -3 3 -12 0 -20 -5 -13 -42 -3 -214 55
-114 39 -213 72 -218 73 -50 9 -195 64 -195 74 0 6 6 12 14 12 8 0 148 -43
311 -94z m100 -131 c314 -103 764 -249 1000 -326 503 -164 463 -150 448 -156
-7 -3 -75 16 -150 40 -76 25 -334 109 -573 187 -666 217 -938 306 -1134 371
-136 44 -182 56 -188 46 -5 -8 -8 -4 -8 12 0 18 4 22 18 18 9 -3 273 -90 587
-192z m960 -205 c176 -56 367 -116 425 -134 58 -18 115 -36 127 -40 20 -7 22
-3 26 46 l3 53 2 -58 c2 -50 5 -58 20 -55 29 6 52 -23 52 -64 0 -33 -5 -41
-37 -62 -26 -16 -40 -20 -45 -12 -4 6 -1 16 7 22 18 14 20 25 3 21 -7 -1 -12
4 -13 12 0 16 -55 35 -55 20 0 -5 -4 -9 -10 -9 -5 0 -10 6 -10 13 0 8 -34 24
-82 39 -328 100 -877 283 -870 290 5 5 105 -23 223 -61 500 -162 760 -243 764
-239 4 4 -493 168 -677 224 -32 10 -58 21 -58 26 0 4 -6 5 -14 2 -8 -3 -17 0
-21 5 -3 6 -9 9 -13 7 -4 -2 -45 8 -92 23 -68 22 -86 32 -88 48 l-3 21 58 -18
c32 -10 202 -64 378 -120z"/>
<path d="M980 1509 c0 -2 -7 -71 -15 -152 l-15 -149 25 -42 c14 -24 25 -54 25
-68 0 -24 9 -27 183 -78 100 -29 254 -74 342 -100 88 -27 246 -73 350 -104
105 -31 198 -59 207 -62 15 -5 18 6 20 98 l3 103 130 67 c95 49 130 72 129 85
0 10 -40 91 -88 181 -59 110 -93 162 -104 162 -9 0 -205 -12 -435 -26 l-418
-25 -157 52 c-86 28 -163 54 -169 57 -7 2 -13 3 -13 1z m170 -120 c6 -10 10
-83 10 -163 0 -136 -1 -146 -19 -146 -10 0 -23 6 -29 13 -6 7 -14 79 -18 161
-5 117 -4 150 6 156 17 11 38 2 50 -21z m790 -9 c19 -19 20 -31 18 -263 -3
-239 -3 -242 -25 -245 -13 -2 -27 5 -37 20 -14 19 -16 59 -16 259 0 236 1 245
33 248 4 1 16 -8 27 -19z m-415 -34 c18 -13 19 -28 20 -192 0 -174 -1 -179
-21 -182 -11 -2 -26 3 -32 10 -12 14 -29 337 -19 362 8 20 27 20 52 2z m-191
-42 c13 -12 16 -39 16 -130 0 -106 -1 -114 -19 -114 -38 0 -51 37 -51 146 0
55 3 104 7 107 11 12 31 8 47 -9z m834 -32 c7 -10 12 -46 12 -93 0 -89 -13
-110 -55 -91 -24 11 -25 15 -25 106 0 96 5 109 40 98 8 -3 21 -12 28 -20z
m-428 -21 c5 -11 10 -72 10 -136 0 -98 -3 -117 -16 -122 -38 -14 -49 9 -57
131 -5 64 -6 123 -3 131 8 22 53 19 66 -4z"/>
<path d="M3919 2353 c8 -17 6 -22 -15 -32 -31 -14 -55 -15 -34 -1 12 8 10 10
-10 10 -15 0 -30 4 -36 10 -6 6 -19 5 -36 -4 -24 -13 -108 -48 -183 -76 -24
-9 -27 -13 -15 -21 12 -8 10 -9 -6 -4 -17 4 -300 -101 -479 -179 -16 -7 -45
-19 -64 -26 l-35 -14 61 -27 c52 -23 70 -26 144 -24 83 4 89 6 364 124 154 67
298 129 320 138 22 9 44 20 48 24 5 4 26 5 47 2 24 -4 55 1 80 11 l40 16 0
-40 c0 -27 -4 -40 -14 -40 -7 0 -87 -34 -177 -76 -434 -201 -572 -265 -664
-307 -321 -146 -435 -197 -444 -197 -7 0 -11 -28 -11 -70 0 -56 3 -70 15 -70
8 0 15 -4 15 -10 0 -5 -7 -7 -15 -4 -13 5 -15 -14 -15 -134 0 -149 -6 -205
-22 -196 -6 4 -5 -3 1 -15 13 -24 23 -28 15 -6 -11 28 5 15 22 -17 9 -18 20
-35 23 -38 8 -7 51 -86 51 -94 0 -4 -5 -4 -11 0 -8 4 -8 0 0 -15 14 -25 23
-28 14 -3 -5 13 -3 14 7 6 19 -18 67 14 74 49 11 56 8 69 -14 57 -15 -8 -20
-22 -22 -53 l-1 -42 -4 38 c-4 39 -11 45 -31 25 -9 -9 -12 -9 -12 -1 0 7 9 15
20 18 16 5 20 15 20 51 0 61 -29 57 -38 -6 -6 -42 -12 -36 -12 13 0 25 4 48
10 52 5 3 7 11 5 18 -3 7 17 24 45 39 28 16 50 25 50 20 0 -4 -20 -18 -45 -31
-25 -13 -43 -26 -41 -28 2 -2 22 5 45 16 22 12 43 21 46 21 3 0 3 -49 -1 -110
-5 -87 -4 -113 7 -127 12 -15 12 -16 -4 -10 -22 8 -77 -21 -77 -40 0 -15 16
-17 25 -3 3 6 12 10 18 10 7 0 1 -9 -13 -19 -13 -11 -28 -17 -33 -14 -5 3 -4
-4 2 -16 14 -25 23 -28 14 -4 -4 11 -3 14 6 9 6 -4 18 -2 26 4 8 7 15 9 15 5
0 -4 -7 -13 -15 -19 -12 -9 -10 -19 18 -64 l33 -52 137 84 c75 47 137 81 137
76 0 -5 -24 -22 -54 -39 -51 -30 -66 -55 -42 -72 4 -4 5 -16 1 -28 -5 -18 -9
-20 -21 -10 -12 10 -13 9 -8 -5 4 -9 1 -16 -6 -16 -16 0 -5 61 12 71 7 5 10
11 6 14 -8 8 -150 -78 -150 -91 0 -5 24 -50 54 -101 39 -69 61 -95 86 -107 18
-9 30 -11 27 -6 -4 7 -1 10 7 8 17 -4 108 54 102 64 -3 5 -2 7 3 6 13 -4 56
22 76 46 10 11 16 15 12 8 -4 -8 66 35 156 95 90 60 210 140 267 177 57 37
101 70 99 72 -3 3 -31 -13 -62 -35 -59 -42 -87 -53 -65 -26 18 21 120 76 130
70 11 -7 194 104 186 112 -3 3 -12 0 -21 -7 -13 -11 -15 -8 -15 22 0 19 6 40
13 47 10 11 9 12 -1 7 -10 -6 -12 27 -8 171 5 183 33 653 39 660 2 2 39 -54
82 -124 180 -292 229 -369 249 -386 12 -10 15 -15 7 -11 -13 7 13 -43 51 -97
l17 -24 -6 35 c-3 19 -12 45 -20 58 -7 12 -11 27 -8 33 4 5 2 8 -4 7 -14 -4
-163 241 -155 255 4 7 4 9 -1 5 -10 -10 -38 29 -30 41 3 5 0 13 -6 17 -8 4 -9
3 -5 -4 4 -7 5 -12 2 -12 -8 0 -51 83 -48 93 1 4 -2 7 -8 7 -6 0 -9 3 -9 8 3
18 -2 33 -9 28 -5 -3 -9 1 -9 8 0 7 -17 41 -38 75 -27 46 -40 59 -46 49 -8
-12 -3 150 6 195 2 9 0 17 -3 17 -4 0 -34 5 -67 10 -42 7 -65 16 -78 32 -10
13 -16 17 -12 11 9 -18 -6 -16 -34 3 -22 16 -23 16 -12 -3z m107 -478 c-11 -8
-23 -15 -28 -15 -4 0 -5 -7 -1 -16 6 -15 7 -15 19 0 9 13 14 14 20 5 4 -7 3
-14 -3 -16 -19 -7 -48 -32 -36 -33 6 0 15 5 18 10 3 6 11 10 17 10 7 0 7 -4 1
-12 -5 -7 -9 -36 -9 -65 1 -44 -2 -54 -21 -64 -13 -7 -23 -21 -23 -31 0 -21 4
-22 33 -7 12 6 4 -6 -18 -26 -43 -39 -95 -71 -95 -57 0 5 16 16 35 25 19 9 35
24 35 32 0 13 -4 14 -22 4 -13 -6 -33 -21 -45 -32 -26 -24 -32 -63 -8 -53 9 3
15 0 15 -9 0 -20 1 -20 60 15 27 16 50 26 50 22 0 -15 -110 -67 -118 -56 -4 6
-15 10 -24 8 -22 -3 -32 12 -22 34 4 9 6 25 5 35 -1 9 2 17 8 17 5 0 11 6 14
13 2 6 3 4 2 -5 -2 -10 2 -18 7 -18 7 0 9 16 5 43 -7 47 6 82 22 58 6 -9 11
-10 15 -2 4 6 2 11 -4 11 -6 0 -8 5 -5 10 3 6 1 10 -4 10 -18 0 -12 28 10 49
l21 20 -21 -6 c-14 -3 -21 -1 -21 8 0 21 12 35 49 55 18 10 43 25 55 31 29 17
35 16 12 -2z m-806 -575 l0 -30 51 26 c28 14 53 23 56 20 3 -2 -22 -19 -56
-35 l-61 -31 0 -73 c0 -45 5 -78 13 -86 10 -10 9 -11 -5 -6 -18 7 -86 -24
-113 -52 -17 -16 -17 -16 -12 2 3 11 9 70 12 130 4 61 9 111 13 113 4 1 25 13
47 27 51 31 55 31 55 -5z"/>
<path d="M2882 1966 c-28 -13 -55 -26 -59 -29 -3 -4 -15 -7 -26 -7 -19 0 -19
-1 -4 -18 12 -13 17 -37 17 -80 l0 -62 -35 0 -35 0 0 69 0 70 -42 -19 c-24
-10 -60 -25 -81 -34 -21 -9 -36 -20 -32 -26 4 -6 16 -5 34 4 15 8 36 13 47 11
10 -2 22 -4 27 -4 12 -2 8 -21 -5 -21 -7 0 -40 -14 -72 -30 -33 -17 -61 -28
-64 -25 -3 3 0 5 6 5 7 0 12 5 12 11 0 6 -9 9 -20 6 -23 -6 -28 11 -6 19 8 3
17 12 20 19 7 20 -42 1 -72 -28 l-24 -22 39 -12 c21 -6 30 -12 20 -12 -43 -2
-5 -27 61 -40 l72 -15 0 -38 c0 -21 -4 -38 -9 -38 -6 0 -40 7 -77 15 -36 9
-68 14 -70 12 -3 -2 14 -36 36 -74 42 -73 48 -89 28 -77 -7 4 -8 3 -4 -5 4 -6
11 -9 16 -6 12 8 83 -122 74 -136 -4 -7 -3 -9 4 -5 6 4 22 -12 36 -37 28 -48
32 -62 14 -51 -7 4 -8 3 -4 -5 4 -6 11 -9 16 -6 5 3 13 -3 19 -12 7 -13 10 50
11 215 0 168 3 232 12 232 8 0 9 -62 4 -242 -4 -157 -3 -248 4 -258 6 -10 10
69 10 248 l0 263 60 26 c33 15 60 30 60 35 0 4 -18 11 -40 14 l-40 7 0 52 c0
65 7 85 29 85 29 0 41 -22 41 -71 l0 -48 53 23 c41 19 53 29 57 51 6 35 29 45
37 16 3 -12 10 -21 15 -21 5 0 6 9 3 21 -6 18 -5 19 13 10 13 -7 29 -8 44 -2
20 7 11 14 -76 55 -54 25 -99 45 -100 45 -1 -1 -25 -11 -54 -23z"/>
</g>
</svg>
