<?xml version="1.0" encoding="UTF-8"?>
<svg xmlns="http://www.w3.org/2000/svg" xmlns:xlink="http://www.w3.org/1999/xlink" width="72px" height="72px" viewBox="0 0 72 72" version="1.1">
<g id="surface1">
<path style=" stroke:none;fill-rule:nonzero;fill:rgb(25.098039%,72.941176%,12.941176%);fill-opacity:1;" d="M 51 72 L 21 72 C 9.398438 72 0 62.601562 0 51 L 0 21 C 0 9.398438 9.398438 0 21 0 L 51 0 C 62.601562 0 72 9.398438 72 21 L 72 51 C 72 62.601562 62.601562 72 51 72 Z M 51 72 "/>
<path style=" stroke:none;fill-rule:nonzero;fill:rgb(100%,100%,100%);fill-opacity:1;" d="M 30.257812 23.296875 C 30.117188 23.0625 30.117188 22.78125 30.234375 22.546875 C 30.257812 22.523438 30.257812 22.476562 30.28125 22.453125 C 30.515625 22.101562 31.007812 22.007812 31.429688 22.21875 C 31.875 22.453125 32.085938 22.96875 31.875 23.367188 C 31.851562 23.390625 31.828125 23.4375 31.804688 23.460938 C 31.640625 23.695312 31.359375 23.8125 31.054688 23.789062 L 29.390625 26.296875 L 36.046875 29.695312 L 36.070312 29.671875 C 36.703125 28.453125 38.578125 25.757812 40.617188 26.8125 L 40.734375 26.882812 C 42.773438 27.914062 41.695312 31.007812 41.085938 32.25 L 41.0625 32.273438 L 47.71875 35.671875 L 48.773438 32.859375 C 48.585938 32.625 48.515625 32.320312 48.609375 32.039062 C 48.609375 32.015625 48.632812 31.96875 48.65625 31.945312 C 48.867188 31.523438 49.40625 31.382812 49.851562 31.617188 C 50.273438 31.828125 50.484375 32.273438 50.34375 32.671875 C 50.34375 32.71875 50.320312 32.742188 50.296875 32.765625 C 50.179688 33 49.945312 33.140625 49.664062 33.1875 L 48.585938 36.070312 L 64.21875 44.039062 C 64.546875 42.914062 64.804688 41.742188 64.992188 40.546875 C 66.210938 32.789062 64.359375 25.03125 59.765625 18.703125 C 57 14.90625 53.507812 11.90625 49.382812 9.796875 C 46.640625 8.390625 43.6875 7.453125 40.617188 6.960938 C 32.882812 5.742188 25.125 7.59375 18.773438 12.210938 C 16.523438 13.851562 14.554688 15.75 12.914062 17.859375 L 28.546875 25.828125 Z M 45.539062 30.375 C 46.125 29.25 48.351562 29.203125 50.53125 30.328125 C 52.6875 31.429688 53.976562 33.257812 53.414062 34.40625 C 52.96875 35.273438 51.585938 35.484375 49.992188 35.0625 L 50.25 34.335938 C 51.65625 34.78125 52.804688 34.78125 53.085938 34.242188 C 53.460938 33.492188 52.148438 32.085938 50.15625 31.054688 C 48.164062 30.046875 46.242188 29.8125 45.867188 30.539062 C 45.5625 31.125 46.335938 32.15625 47.695312 33.070312 L 47.414062 33.820312 C 45.867188 32.742188 45.070312 31.3125 45.539062 30.375 Z M 27.117188 20.953125 C 27.703125 19.828125 29.929688 19.78125 32.109375 20.90625 C 34.289062 22.007812 35.554688 23.835938 34.992188 24.960938 C 34.5 25.921875 32.882812 26.085938 31.078125 25.476562 L 31.523438 24.796875 C 33.070312 25.359375 34.359375 25.382812 34.664062 24.796875 C 35.039062 24.046875 33.726562 22.640625 31.734375 21.609375 C 29.742188 20.601562 27.820312 20.367188 27.445312 21.09375 C 27.164062 21.65625 27.820312 22.570312 29.015625 23.4375 L 28.59375 24.070312 C 27.304688 23.085938 26.671875 21.820312 27.117188 20.953125 Z M 27.117188 20.953125 "/>
<path style=" stroke:none;fill-rule:nonzero;fill:rgb(100%,100%,100%);fill-opacity:1;" d="M 70.125 49.6875 C 69.023438 50.367188 66.960938 50.0625 64.5 48.914062 C 62.765625 48.117188 41.132812 37.3125 39.023438 36.257812 C 38.929688 36.210938 38.625 36.046875 38.625 36.046875 C 38.507812 36.140625 38.390625 36.234375 38.273438 36.351562 C 37.3125 37.171875 36.046875 38.15625 35.273438 38.34375 C 35.085938 38.390625 34.921875 38.367188 34.804688 38.320312 C 34.6875 38.25 34.59375 38.132812 34.523438 37.96875 C 34.195312 37.242188 34.265625 35.648438 34.359375 34.382812 C 34.382812 34.21875 34.382812 34.054688 34.40625 33.914062 C 34.40625 33.914062 34.101562 33.773438 34.007812 33.703125 C 31.898438 32.625 10.476562 21.445312 8.8125 20.507812 C 6.421875 19.148438 4.945312 17.648438 4.875 16.359375 C 4.617188 16.898438 4.59375 17.507812 4.757812 18.117188 L 7.5 28.96875 C 5.90625 35.414062 6.492188 42.375 9.539062 48.726562 C 10.054688 49.804688 10.640625 50.859375 11.296875 51.867188 C 11.625 52.382812 11.976562 52.875 12.234375 53.25 L 12.28125 53.320312 C 13.828125 55.453125 15.632812 57.328125 17.648438 58.921875 C 19.6875 55.734375 23.90625 52.054688 25.523438 50.789062 C 25.617188 50.71875 25.6875 50.882812 25.59375 50.976562 C 23.71875 53.109375 21.328125 57.234375 20.34375 60.820312 C 20.859375 61.148438 21.375 61.453125 21.914062 61.757812 C 23.25 56.859375 28.171875 49.898438 30.046875 47.296875 C 30.164062 47.132812 30.398438 47.273438 30.328125 47.4375 C 29.179688 51.1875 27.5625 60.234375 29.71875 64.6875 C 37.78125 66.46875 46.335938 64.757812 53.226562 59.742188 C 55.007812 58.453125 56.601562 57 58.007812 55.382812 L 68.484375 50.835938 C 69.234375 50.671875 69.796875 50.273438 70.125 49.6875 Z M 41.4375 41.34375 C 41.882812 40.476562 43.265625 40.265625 44.859375 40.6875 L 44.578125 41.414062 C 43.195312 40.945312 42.023438 40.96875 41.742188 41.507812 C 41.4375 42.09375 42.234375 43.125 43.570312 44.039062 L 43.289062 44.789062 C 41.765625 43.710938 40.96875 42.28125 41.4375 41.34375 Z M 27.046875 31.570312 C 28.3125 32.601562 28.945312 33.867188 28.523438 34.734375 C 28.03125 35.671875 26.414062 35.859375 24.632812 35.25 L 25.078125 34.570312 C 26.601562 35.132812 27.914062 35.15625 28.195312 34.570312 C 28.476562 34.007812 27.820312 33.070312 26.625 32.226562 Z M 20.648438 30.726562 C 21.140625 29.765625 22.757812 29.601562 24.539062 30.210938 L 24.09375 30.890625 C 22.570312 30.328125 21.257812 30.304688 20.953125 30.890625 C 20.671875 31.453125 21.328125 32.367188 22.523438 33.234375 L 22.101562 33.890625 C 20.835938 32.835938 20.203125 31.59375 20.648438 30.726562 Z M 48.164062 48.75 L 46.3125 53.71875 C 46.21875 53.976562 45.914062 54.117188 45.65625 54.023438 C 45.398438 53.929688 45.257812 53.625 45.351562 53.367188 L 45.515625 52.921875 C 45.703125 52.429688 45.492188 51.84375 45.023438 51.609375 L 18.070312 37.851562 C 17.601562 37.617188 16.992188 37.78125 16.710938 38.226562 L 16.453125 38.625 C 16.289062 38.859375 15.984375 38.929688 15.75 38.765625 C 15.515625 38.625 15.46875 38.296875 15.609375 38.0625 L 18.539062 33.632812 C 18.703125 33.398438 19.007812 33.351562 19.242188 33.492188 C 19.453125 33.632812 19.523438 33.914062 19.40625 34.148438 C 19.40625 34.171875 19.382812 34.171875 19.382812 34.195312 L 19.195312 34.476562 L 21.914062 35.859375 L 22.851562 34.429688 L 23.742188 33.070312 C 23.625 32.835938 23.601562 32.554688 23.71875 32.320312 C 23.859375 32.015625 24.1875 31.875 24.539062 31.898438 L 25.640625 30.210938 L 26.507812 30.65625 L 25.804688 31.734375 L 25.359375 32.414062 C 25.476562 32.648438 25.5 32.929688 25.382812 33.164062 C 25.242188 33.46875 24.914062 33.609375 24.5625 33.585938 L 23.953125 34.523438 L 23.929688 34.570312 L 23.695312 34.921875 L 22.78125 36.328125 L 43.546875 46.921875 L 44.695312 43.875 C 44.484375 43.617188 44.414062 43.265625 44.554688 42.960938 C 44.671875 42.726562 44.90625 42.5625 45.1875 42.539062 L 45.46875 41.765625 L 45.75 41.015625 L 45.914062 40.570312 L 46.78125 41.015625 L 46.078125 42.890625 C 46.289062 43.148438 46.359375 43.5 46.195312 43.804688 C 46.078125 44.039062 45.84375 44.203125 45.5625 44.226562 L 44.390625 47.367188 L 47.109375 48.75 L 47.226562 48.421875 L 47.25 48.375 C 47.367188 48.140625 47.625 48.046875 47.882812 48.140625 C 48.140625 48.1875 48.28125 48.492188 48.164062 48.75 Z M 49.3125 45.351562 C 48.867188 46.21875 47.484375 46.429688 45.890625 46.007812 L 46.148438 45.28125 C 47.554688 45.726562 48.679688 45.726562 48.984375 45.1875 C 49.289062 44.601562 48.492188 43.570312 47.132812 42.65625 L 47.414062 41.882812 C 48.960938 42.984375 49.78125 44.414062 49.3125 45.351562 Z M 49.3125 45.351562 "/>
</g>
</svg>
